# xmcd
#
# Track frame offsets:
#	150
#	14449
#	29045
#	44910
#	59471
#	73639
#	87042
#	102096
#	115971
#	132779
#	149412
#	167115
#
# Disc length: 2409 seconds
#
# Revision: 0
# Processed by: cddbd v1.5.2PL0 Copyright (c) Steve Scherf et al.
# Submitted via: dBpowerAMP V4.0
#
DISCID=af09670c
DTITLE=Gloriana - Three
DYEAR=2015
DGENRE=Country
TTITLE0=Trouble
TTITLE1=Ain't Runnin' Outta Summer
TTITLE2=Are You Ready
TTITLE3=Nobody But You
TTITLE4=It's On Tonight
TTITLE5=Fight
TTITLE6=Wanna Get To Know You
TTITLE7=Let's Take A Shot
TTITLE8=Get Back That Goodbye
TTITLE9=Lighters
TTITLE10=It Won't Let Go
TTITLE11=My Somebody
EXTD=
EXTT0=
EXTT1=
EXTT2=
EXTT3=
EXTT4=
EXTT5=
EXTT6=
EXTT7=
EXTT8=
EXTT9=
EXTT10=
EXTT11=
PLAYORDER=
